<svg xmlns="http://www.w3.org/2000/svg" xmlns:xlink="http://www.w3.org/1999/xlink" viewBox="0 0 387.14 384.3">
  <defs>
    <style>
      .a {
        stroke: #fff;
        stroke-miterlimit: 10;
        stroke-width: 2px;
        fill: url(#a);
      }
    </style>
    <radialGradient id="a" data-name="未命名的渐变 14" cx="239.38" cy="187.38" r="197.81" gradientUnits="userSpaceOnUse">
      <stop offset="0" stop-color="#ff7bac"/>
      <stop offset="1" stop-color="#3fa9f5"/>
    </radialGradient>
  </defs>
  <path class="a" d="M179.12,268.37,94.33,385.63C3.81,302.76-2.4,162.19,80.48,71.67A177.77,177.77,0,0,1,331.65,60.59a142.22,142.22,0,0,1,8.86,200.94,113.78,113.78,0,0,1-160.75,7.09A91,91,0,0,1,174.09,140,72.82,72.82,0,0,1,277,135.48a58.25,58.25,0,0,1,3.63,82.3,46.59,46.59,0,0,1-65.84,2.91A37.28,37.28,0,0,1,212.44,168a29.82,29.82,0,0,1,42.14-1.85,23.86,23.86,0,0,1,1.48,33.71,19.09,19.09,0,0,1-27,1.19,15.28,15.28,0,0,1-1-21.58,12.21,12.21,0,0,1,17.26-.76,9.77,9.77,0,0,1,.61,13.81,7.83,7.83,0,0,1-11,.49,6.27,6.27,0,0,1-.39-8.84,5,5,0,0,1,7.07-.31,4,4,0,0,1,.25,5.65,3.19,3.19,0,0,1-4.52.2,2.56,2.56,0,0,1-.16-3.62" transform="translate(-9.64 -12.94)"/>
  <g>
    <path d="M26.7,310.45l-1.79-4.58,2-.8.82,2.1.86-.34-.81-2.06,1.94-.75.8,2.06,2.94-1.15,1,2.48ZM33,306.31l-2.83,1.1-.86-2.21-.28.11.86,2.21-2.52,1-.91-2.33-.27.11,1,2.63,5.91-2.31Z" transform="translate(-9.64 -12.94)"/>
    <path d="M24.63,305.11l-1-2.66,7.82-2.87,1,2.65Zm6.35-4L25,303.28l.11.31,5.95-2.19Z" transform="translate(-9.64 -12.94)"/>
    <path d="M23.3,301.49l-1.06-3.08a4.54,4.54,0,0,1-.23-1.13,2.78,2.78,0,0,1,.11-1,2,2,0,0,1,.48-.77,2.21,2.21,0,0,1,.86-.51,2.07,2.07,0,0,1,.68-.13,2.44,2.44,0,0,1,.51.05,1.58,1.58,0,0,1,.46.18,2.1,2.1,0,0,1,.26-.62,2.68,2.68,0,0,1,.46-.52,2.37,2.37,0,0,1,.79-.44,2.66,2.66,0,0,1,1.1-.15,2.26,2.26,0,0,1,1,.31,2.68,2.68,0,0,1,.81.74,4.07,4.07,0,0,1,.58,1.14l1.1,3.22Zm6-5.25a2.35,2.35,0,0,0-1-1.39,1.61,1.61,0,0,0-1.36-.09,1.41,1.41,0,0,0-.71.47,2.4,2.4,0,0,0-.3.6,2,2,0,0,0,0,.74,1.56,1.56,0,0,0-.43-.42,1.44,1.44,0,0,0-.55-.21,1.27,1.27,0,0,0-.73.07,1.41,1.41,0,0,0-1,.85,2.07,2.07,0,0,0,.06,1.42l.58,1.71,6-2.05Zm-2.8,2.51-2.44.83-.48-1.39a1.62,1.62,0,0,1,0-1.22,1.22,1.22,0,0,1,.77-.64,1.25,1.25,0,0,1,1,0,1.61,1.61,0,0,1,.72,1Zm-1.89-1.39c-.37.12-.48.38-.35.78l.1.28,1.09-.37-.1-.28C25.18,297.37,24.93,297.24,24.57,297.36Zm4.88.37-2.71.92-.47-1.38a2.68,2.68,0,0,1-.16-.71,1.88,1.88,0,0,1,.05-.63,1.19,1.19,0,0,1,.29-.51,1.49,1.49,0,0,1,.57-.35,1.26,1.26,0,0,1,1.21.12,2.39,2.39,0,0,1,.75,1.16Zm-1.05-1q-.3-.9-1-.66c-.46.15-.59.53-.38,1.13l.1.29L28.5,297Z" transform="translate(-9.64 -12.94)"/>
    <path d="M25,293.61a4.38,4.38,0,0,1-3.34-.34,4.53,4.53,0,0,1-1.3-1.06,4.34,4.34,0,0,1-.82-1.53,4.24,4.24,0,0,1-.16-1.73,4.39,4.39,0,0,1,.49-1.6,4.31,4.31,0,0,1,1.07-1.3,4,4,0,0,1,1.53-.82,4.21,4.21,0,0,1,1.72-.17,4.37,4.37,0,0,1,3.73,3.09,4.25,4.25,0,0,1,.16,1.73,4.33,4.33,0,0,1-.49,1.6,4.6,4.6,0,0,1-1.06,1.31A4.52,4.52,0,0,1,25,293.61Zm-.34-1.13a3.27,3.27,0,0,0,1.12-.6,3.19,3.19,0,0,0,.77-.95,3.25,3.25,0,0,0,.37-1.18,3.38,3.38,0,0,0-.12-1.26,3.19,3.19,0,0,0-.6-1.12,3.11,3.11,0,0,0-1-.77,3.15,3.15,0,0,0-1.17-.37,3,3,0,0,0-1.26.12,3.1,3.1,0,0,0-1.12.6,3.17,3.17,0,0,0-1.14,2.13,3,3,0,0,0,.12,1.26,2.89,2.89,0,0,0,.6,1.12,3.39,3.39,0,0,0,.95.78,3.33,3.33,0,0,0,1.17.36A3.08,3.08,0,0,0,24.67,292.48Zm1.82-3.9a2.64,2.64,0,0,1,.11,1.14,2.69,2.69,0,0,1-.33,1,2.73,2.73,0,0,1-.69.86,2.89,2.89,0,0,1-1,.54,2.74,2.74,0,0,1-1.13.11,3.2,3.2,0,0,1-1.06-.33,3,3,0,0,1-.85-.7,2.55,2.55,0,0,1-.54-1,2.82,2.82,0,0,1,.22-2.19,3,3,0,0,1,.69-.86,3,3,0,0,1,1-.54,2.77,2.77,0,0,1,1.14-.1,3,3,0,0,1,1.05.32,3,3,0,0,1,.86.7A2.75,2.75,0,0,1,26.49,288.58Zm-2.24,2.51a1.72,1.72,0,0,0,.61-.33,1.61,1.61,0,0,0,.42-.52,1.55,1.55,0,0,0,.2-.64,1.71,1.71,0,0,0-.39-1.3,1.78,1.78,0,0,0-.52-.43,1.76,1.76,0,0,0-.64-.19,1.62,1.62,0,0,0-.69.06,1.68,1.68,0,0,0-.62.33,1.75,1.75,0,0,0-.42.52,1.77,1.77,0,0,0-.2.64,1.63,1.63,0,0,0,.07.69,1.92,1.92,0,0,0,.32.62,2.09,2.09,0,0,0,.52.42,1.73,1.73,0,0,0,1.34.13Z" transform="translate(-9.64 -12.94)"/>
    <path d="M18.25,285.55l-.56-2.12,2.53-3-3.11.81-.66-2.53,8.07-2.11.55,2.13-2.51,3,3.09-.81.66,2.53Zm6.72-3.3-5.59,1.47,4.55-5.46-.09-.31-6.13,1.6.08.32,5.59-1.47-4.54,5.46.08.31,6.13-1.6Z" transform="translate(-9.64 -12.94)"/>
    <path d="M15.65,275.21l-.44-2,7.44-4.91.58,2.56-.67.43.55,2.46.79.11.58,2.56Zm7.45-.35-.67-.09-.9-4,.55-.37L22,270l-5.66,3.75.11.46,6.71,1Zm-6.4-.92,4.56-3,.86,3.8Zm4.22-1.52-1.31.87,1.55.23Z" transform="translate(-9.64 -12.94)"/>
    <path d="M18.58,269.17a4.55,4.55,0,0,1-1.84,0,4.23,4.23,0,0,1-1.53-.67,4.12,4.12,0,0,1-1.13-1.22,4.62,4.62,0,0,1-.62-1.61,5.27,5.27,0,0,1-.1-1.27,5.41,5.41,0,0,1,.13-1,3.87,3.87,0,0,1,.28-.87l2.52.86c-.08.15-.14.31-.21.48s-.07.33-.09.54a1.93,1.93,0,0,0,0,.67,1.87,1.87,0,0,0,.27.68,2,2,0,0,0,.47.49,1.8,1.8,0,0,0,.62.27,1.7,1.7,0,0,0,1.81-.75,1.85,1.85,0,0,0,.26-.65,1.89,1.89,0,0,0,0-.75,2.47,2.47,0,0,0-.23-.68,2.85,2.85,0,0,0-.32-.48,2.31,2.31,0,0,0-.4-.37l2-1.72a3.56,3.56,0,0,1,.62.7,6.26,6.26,0,0,1,.5.88,5.35,5.35,0,0,1,.41,3.07,4.22,4.22,0,0,1-.61,1.57,4.11,4.11,0,0,1-1.18,1.17A4.44,4.44,0,0,1,18.58,269.17Zm-.29-1.55a3,3,0,0,1-1.15,0,2.84,2.84,0,0,1-1-.4,2.64,2.64,0,0,1-.77-.79,2.92,2.92,0,0,1-.45-1.13,4.76,4.76,0,0,1-.07-.58,2.9,2.9,0,0,1,0-.45,1.42,1.42,0,0,1,.08-.38l-.33-.12c0,.15-.06.3-.08.45s0,.32,0,.5a4,4,0,0,0,.07.64,3.29,3.29,0,0,0,.45,1.15,3,3,0,0,0,.82.89,3.14,3.14,0,0,0,1.13.51,3.22,3.22,0,0,0,1.35,0,3.25,3.25,0,0,0,1.25-.5,2.88,2.88,0,0,0,.86-.88,3.27,3.27,0,0,0,.44-1.15,3.79,3.79,0,0,0,0-1.3,3.57,3.57,0,0,0-.19-.65,3.63,3.63,0,0,0-.23-.48,4.17,4.17,0,0,0-.27-.38l-.27.23a1.46,1.46,0,0,1,.26.33,4.1,4.1,0,0,1,.21.42,2.76,2.76,0,0,1,.17.59,3.15,3.15,0,0,1,0,1.26,2.71,2.71,0,0,1-.43,1,2.58,2.58,0,0,1-.79.75A2.9,2.9,0,0,1,18.29,267.62Z" transform="translate(-9.64 -12.94)"/>
    <path d="M17.15,261.56a4.5,4.5,0,0,1-1.84-.06,4.16,4.16,0,0,1-1.51-.73,4,4,0,0,1-1.09-1.25,4.72,4.72,0,0,1-.57-1.63,5.72,5.72,0,0,1-.06-1.28,6,6,0,0,1,.17-1,3.76,3.76,0,0,1,.31-.86l2.48.94c-.07.15-.15.31-.21.48a4.72,4.72,0,0,0-.12.53,2.6,2.6,0,0,0,0,.68,1.91,1.91,0,0,0,.25.68,1.7,1.7,0,0,0,.46.5,1.5,1.5,0,0,0,.61.29,1.77,1.77,0,0,0,.69,0,1.6,1.6,0,0,0,.65-.25,1.72,1.72,0,0,0,.49-.48,1.79,1.79,0,0,0,.28-.63,1.93,1.93,0,0,0,0-.76,2.48,2.48,0,0,0-.2-.68,2.44,2.44,0,0,0-.31-.49,1.56,1.56,0,0,0-.39-.38l2.09-1.65a3.93,3.93,0,0,1,.6.71,7.4,7.4,0,0,1,.47.9,5.14,5.14,0,0,1,.35,1.25,4.87,4.87,0,0,1,0,1.83,4.49,4.49,0,0,1-.66,1.55A4.21,4.21,0,0,1,18.85,261,4.58,4.58,0,0,1,17.15,261.56ZM16.9,260a3.11,3.11,0,0,1-1.14,0,2.78,2.78,0,0,1-1-.44,2.66,2.66,0,0,1-.75-.81,3,3,0,0,1-.4-1.15,3,3,0,0,1,0-.58,1.89,1.89,0,0,1,0-.44,1.77,1.77,0,0,1,.09-.38l-.32-.13c0,.14-.07.29-.1.45a3.63,3.63,0,0,0,0,.5,3.66,3.66,0,0,0,0,.63,3.62,3.62,0,0,0,.41,1.17,3.13,3.13,0,0,0,1.91,1.47,3.45,3.45,0,0,0,2.61-.4,3,3,0,0,0,1.36-2,3.49,3.49,0,0,0,0-1.29,2.89,2.89,0,0,0-.17-.66,4.79,4.79,0,0,0-.21-.49,3.77,3.77,0,0,0-.26-.39l-.27.22a1.54,1.54,0,0,1,.24.35,2.06,2.06,0,0,1,.2.42,3.75,3.75,0,0,1,.15.6,3.25,3.25,0,0,1,0,1.25,2.8,2.8,0,0,1-.46,1,2.71,2.71,0,0,1-.82.72A3,3,0,0,1,16.9,260Z" transform="translate(-9.64 -12.94)"/>
    <path d="M11.82,254.26l-.36-2.8,8.27-1.08.36,2.8Zm7.08-2.51-6.29.82,0,.32,6.29-.82Z" transform="translate(-9.64 -12.94)"/>
    <path d="M11.05,248.53l-.25-2.82,2.82-1.21-3-.71L10.47,242l2.82-1.22-3-.7-.24-2.82,8.54,2,.19,2.07-2.45,1.06,2.59.61.18,2.07Zm7-4.63-5.37-1.2,5.08-2.11,0-.31-6.5-1.53,0,.34,5.91,1.39-5.58,2.32,5.9,1.31-5.58,2.4,0,.34L18,244.21Z" transform="translate(-9.64 -12.94)"/>
    <path d="M10.09,236.85,9.94,234l8.32-.46.16,2.82Zm7.24-2-6.32.36v.32l6.33-.35Z" transform="translate(-9.64 -12.94)"/>
    <path d="M9.88,233l-.1-2.77,6.15-.22-.08-2.3,2.18-.08.19,5.07Zm7.18-4.64h-.3l.1,2.8-6,.22v.33l6.33-.23Z" transform="translate(-9.64 -12.94)"/>
    <path d="M9.69,227.36l0-2.78,6.15-.07,0-2.3,2.19,0,.06,5.08ZM17,222.89h-.3l0,2.8-6,.07v.32L17,226Z" transform="translate(-9.64 -12.94)"/>
    <path d="M18,219.34l-8.34-.23.06-2.31a7.71,7.71,0,0,1,.32-2.09,4.4,4.4,0,0,1,.83-1.53,3.39,3.39,0,0,1,1.34-.92A4.48,4.48,0,0,1,14,212a4.5,4.5,0,0,1,1.8.38,3.4,3.4,0,0,1,1.28,1,4.17,4.17,0,0,1,.75,1.57A7.63,7.63,0,0,1,18,217Zm-1-1.28L17,217a4.1,4.1,0,0,0-.75-2.78,3,3,0,0,0-2.32-1,3,3,0,0,0-2.37.86,4.13,4.13,0,0,0-.9,2.74l0,1.06Zm-.29-.33L11,217.57l0-.74a3.77,3.77,0,0,1,.79-2.44,2.62,2.62,0,0,1,2.17-.83,2.59,2.59,0,0,1,2.12.95,3.75,3.75,0,0,1,.66,2.48Zm-1-1.12a2.12,2.12,0,0,0-.4-1.46,1.69,1.69,0,0,0-1.34-.55,1.64,1.64,0,0,0-1.36.48,2.07,2.07,0,0,0-.48,1.43Z" transform="translate(-9.64 -12.94)"/>
    <path d="M14,211.38a4.11,4.11,0,0,1-1.67-.45,4.36,4.36,0,0,1-1.33-1,4.47,4.47,0,0,1-.85-1.45,4.32,4.32,0,0,1-.23-1.72,4.27,4.27,0,0,1,.45-1.67,4.52,4.52,0,0,1,1-1.33,4.47,4.47,0,0,1,1.45-.85,4.32,4.32,0,0,1,1.72-.23,4.37,4.37,0,0,1,1.68.45,4.65,4.65,0,0,1,1.33,1,4.38,4.38,0,0,1,.84,1.45,4.15,4.15,0,0,1,.23,1.72,4.37,4.37,0,0,1-.45,1.68,4.48,4.48,0,0,1-1,1.33,4.28,4.28,0,0,1-1.45.84A4.15,4.15,0,0,1,14,211.38Zm.08-1.17a3.13,3.13,0,0,0,1.26-.17,3.32,3.32,0,0,0,1.06-.62,3.12,3.12,0,0,0,.75-1,3.16,3.16,0,0,0,.33-1.22,3.11,3.11,0,0,0-.17-1.26,3.22,3.22,0,0,0-.62-1.06,3.13,3.13,0,0,0-2.2-1.09,3.06,3.06,0,0,0-1.25.17,3.22,3.22,0,0,0-1.06.62,3.27,3.27,0,0,0-.76,1,3.21,3.21,0,0,0-.33,1.23,3.13,3.13,0,0,0,.17,1.26,3.32,3.32,0,0,0,.62,1.06,3.18,3.18,0,0,0,2.2,1.08Zm3.08-3a3,3,0,0,1-.3,1.11,3,3,0,0,1-.68.87,2.93,2.93,0,0,1-2.08.71,2.85,2.85,0,0,1-1.1-.3,2.77,2.77,0,0,1-.87-.68,2.84,2.84,0,0,1-.56-.95,2.94,2.94,0,0,1,.14-2.23,3,3,0,0,1,1.63-1.43,2.67,2.67,0,0,1,1.13-.15,2.77,2.77,0,0,1,1.11.29,3.2,3.2,0,0,1,.87.68,2.92,2.92,0,0,1,.55.95A2.85,2.85,0,0,1,17.19,207.2Zm-3,1.56a1.61,1.61,0,0,0,.69-.09,1.77,1.77,0,0,0,.58-.34,1.54,1.54,0,0,0,.41-.53,1.52,1.52,0,0,0,.18-.67,1.61,1.61,0,0,0-.09-.69,1.77,1.77,0,0,0-.34-.58,1.79,1.79,0,0,0-.53-.41,1.85,1.85,0,0,0-.67-.18,1.72,1.72,0,0,0-1.27.43,1.93,1.93,0,0,0-.41.53,1.71,1.71,0,0,0-.18.67,1.61,1.61,0,0,0,.09.69,1.77,1.77,0,0,0,.34.58,1.64,1.64,0,0,0,.53.41A1.56,1.56,0,0,0,14.2,208.76Z" transform="translate(-9.64 -12.94)"/>
    <path d="M10.51,201.43l.24-2.18,3.41-1.83-2.95-2.49.23-2.19,8.29.89-.28,2.64-3-.31,2.3,1.95-2.66,1.44,3,.32-.28,2.65Zm7.47-.79-5.71-.6,4.35-2.36-3.75-3.2,5.7.61,0-.33-6.31-.67,0,.33,3.79,3.2L11.68,200l0,.33L18,201Z" transform="translate(-9.64 -12.94)"/>
    <path d="M11.61,191.69l.38-2.8L20.25,190l-.38,2.8Zm7.49-.57-6.29-.85,0,.32,6.28.85Z" transform="translate(-9.64 -12.94)"/>
    <path d="M12.12,187.86l.35-2.16L16,183.94l-3.17-.52.41-2.58,8.24,1.34-.36,2.17-3.52,1.75,3.16.51-.42,2.58Zm7.48-.3-5.7-.92,6.36-3.15,0-.32-6.26-1-.05.32,5.71.93-6.37,3.15-.05.32,6.26,1Z" transform="translate(-9.64 -12.94)"/>
    <path d="M13.93,177.33l.39-2,8.79-1.49-.51,2.58-.79.12-.49,2.48.69.42-.51,2.57Zm7,2.7-.57-.35.8-4.05.66-.11.07-.35-6.69,1.14-.09.47,5.75,3.59ZM15.4,176.6l5.39-.92L20,179.51Zm4.47.31-1.54.27,1.33.84Z" transform="translate(-9.64 -12.94)"/>
    <path d="M17.41,171.33l-.35,1.5-2.13-.49,1.3-5.68,2.13.49-.34,1.5L24,170l-.61,2.68Zm5.36-.35-5.89-1.35.4-1.74-.29-.07-.87,3.81.29.06.4-1.74,5.89,1.35Z" transform="translate(-9.64 -12.94)"/>
    <path d="M16.38,166.08l1.21-4.76,2.12.54-.56,2.19.9.22.55-2.14,2,.51-.55,2.15L23,165l.57-2.27,2.12.54-1.23,4.85ZM24.5,164l-.29-.07-.62,2.42-2.66-.68.59-2.3-.29-.07-.59,2.3L18,164.88l.61-2.42-.29-.08-.7,2.74,6.15,1.57Z" transform="translate(-9.64 -12.94)"/>
    <path d="M24,159.73a2.9,2.9,0,0,0,.29-.52,3.45,3.45,0,0,0,.26-.51,6.32,6.32,0,0,0,.22-.61c.11-.37,0-.59-.25-.67a.46.46,0,0,0-.36.07,4.47,4.47,0,0,0-.49.32c-.18.14-.38.28-.6.43a5.33,5.33,0,0,1-.71.38,2.61,2.61,0,0,1-.83.22,2.21,2.21,0,0,1-.94-.09,2.41,2.41,0,0,1-.94-.5,2.06,2.06,0,0,1-.55-.77,2.41,2.41,0,0,1-.19-1,3.43,3.43,0,0,1,.15-1.08c.06-.19.12-.38.2-.57s.15-.35.21-.5l.22-.49,2.24.66-.08.21-.09.21-.09.25a1.27,1.27,0,0,0,0,.18.76.76,0,0,0,0,.21.31.31,0,0,0,0,.19.21.21,0,0,0,.15.12.37.37,0,0,0,.28-.09l.46-.29.59-.39a4.46,4.46,0,0,1,.73-.35,3.65,3.65,0,0,1,.85-.18,2.52,2.52,0,0,1,1,.11,2.84,2.84,0,0,1,.94.46,2.18,2.18,0,0,1,.65.76A2.47,2.47,0,0,1,27.5,157a4.1,4.1,0,0,1-.18,1.37,7.25,7.25,0,0,1-.3.83,7,7,0,0,1-.3.66,6.23,6.23,0,0,1-.33.59Zm1.74-.59c.05-.1.11-.22.16-.34l.15-.34c.05-.12.09-.25.13-.37a3.21,3.21,0,0,0,.11-.68,1.77,1.77,0,0,0-.09-.65,1.42,1.42,0,0,0-.34-.53,1.51,1.51,0,0,0-.65-.36,1.55,1.55,0,0,0-.71,0,3.6,3.6,0,0,0-.73.27,6.37,6.37,0,0,0-.72.41,6.59,6.59,0,0,1-.71.42,3.09,3.09,0,0,1-.66.29,1.06,1.06,0,0,1-.61,0,.87.87,0,0,1-.59-.47,1.45,1.45,0,0,1,0-1l.06-.2c0-.06.05-.13.08-.19a1.07,1.07,0,0,0,.07-.19l-.32-.09a.64.64,0,0,1-.06.18,4.22,4.22,0,0,0-.14.39,1.89,1.89,0,0,0,0,1.15,1.08,1.08,0,0,0,.79.69,1.25,1.25,0,0,0,.69,0,3.59,3.59,0,0,0,.7-.27l.72-.42c.23-.15.47-.29.7-.42a3.33,3.33,0,0,1,.69-.28,1.11,1.11,0,0,1,.65,0,1.06,1.06,0,0,1,.76.64,1.78,1.78,0,0,1,0,1.16,4.68,4.68,0,0,1-.27.73c-.06.12-.11.23-.17.33Z" transform="translate(-9.64 -12.94)"/>
    <path d="M24.09,153.78a4.63,4.63,0,0,1-1.61-.89,4.23,4.23,0,0,1-1-1.34,3.94,3.94,0,0,1-.4-1.6,4.59,4.59,0,0,1,.23-1.71,5.79,5.79,0,0,1,.52-1.17,6.56,6.56,0,0,1,.6-.81,4.17,4.17,0,0,1,.66-.62l1.79,2c-.13.1-.27.21-.4.33a3.23,3.23,0,0,0-.35.42,2.3,2.3,0,0,0-.29.61,1.79,1.79,0,0,0,.09,1.37,1.68,1.68,0,0,0,.41.54,1.7,1.7,0,0,0,.6.34,1.53,1.53,0,0,0,.7.07,1.64,1.64,0,0,0,.65-.2,1.87,1.87,0,0,0,.54-.44,2.23,2.23,0,0,0,.48-1.37,2.42,2.42,0,0,0-.05-.57,1.7,1.7,0,0,0-.17-.51l2.6-.54a3.65,3.65,0,0,1,.22.92,6.64,6.64,0,0,1,0,1,5,5,0,0,1-.26,1.27,4.83,4.83,0,0,1-.86,1.62,4.43,4.43,0,0,1-1.29,1.08,4.12,4.12,0,0,1-1.6.46A4.56,4.56,0,0,1,24.09,153.78Zm.49-1.5a3.16,3.16,0,0,1-1-.54,2.77,2.77,0,0,1-.69-.84,2.66,2.66,0,0,1-.3-1.06,3.07,3.07,0,0,1,.16-1.21,4.65,4.65,0,0,1,.22-.54,2.51,2.51,0,0,1,.24-.38,1.49,1.49,0,0,1,.25-.29l-.23-.26c-.1.11-.19.22-.29.35a4.09,4.09,0,0,0-.25.43,3.74,3.74,0,0,0-.25.59,3.42,3.42,0,0,0-.16,1.23,3.1,3.1,0,0,0,.29,1.17,3.37,3.37,0,0,0,.74,1,3.54,3.54,0,0,0,2.52.83A3,3,0,0,0,27,152.4a3.26,3.26,0,0,0,.94-.8,3.63,3.63,0,0,0,.61-1.15,2.83,2.83,0,0,0,.15-.66c0-.2,0-.38,0-.53a3,3,0,0,0-.06-.46l-.34.07a1.35,1.35,0,0,1,.06.41,3.8,3.8,0,0,1,0,.47,3.19,3.19,0,0,1-.14.6,3.11,3.11,0,0,1-.6,1.11,2.89,2.89,0,0,1-.87.7,2.63,2.63,0,0,1-1.05.27A2.94,2.94,0,0,1,24.58,152.28Z" transform="translate(-9.64 -12.94)"/>
    <path d="M22.64,144.87l.94-2.67L31.44,145l-.94,2.67Zm7.44,1-6-2.12L24,144l6,2.11Z" transform="translate(-9.64 -12.94)"/>
    <path d="M23.91,141.26l1.74-4.6,2,.77-.79,2.11.87.33.78-2.08,1.94.74-.78,2.07.9.34.82-2.19,2,.77-1.76,4.68ZM32.22,140l-.28-.1-.88,2.34-2.57-1,.84-2.22-.28-.11-.84,2.23-2.52-1,.88-2.34-.28-.1-1,2.64,5.93,2.24Z" transform="translate(-9.64 -12.94)"/>
    <path d="M26,135.69l.84-2,3.84-.9-3-1.22,1-2.42,7.71,3.18-.84,2-3.83.9,3,1.22-1,2.41Zm7.36,1.42L28,134.91l6.91-1.62.12-.3-5.86-2.41-.12.3,5.34,2.2-6.91,1.61-.13.3,5.86,2.42Z" transform="translate(-9.64 -12.94)"/>
    <path d="M32.88,130a4.43,4.43,0,0,1-1.5-1.07,4.17,4.17,0,0,1-.87-1.43,4.1,4.1,0,0,1-.22-1.64,4.62,4.62,0,0,1,.42-1.68,5,5,0,0,1,.65-1.1,5.57,5.57,0,0,1,.68-.74,4.76,4.76,0,0,1,.72-.55L34.33,124c-.15.08-.29.18-.44.28a4.51,4.51,0,0,0-.39.38,2.31,2.31,0,0,0-.36.57,1.89,1.89,0,0,0-.17.71,1.85,1.85,0,0,0,.11.67,1.64,1.64,0,0,0,.35.58,1.66,1.66,0,0,0,.56.41,1.64,1.64,0,0,0,.68.15,1.86,1.86,0,0,0,.67-.13,2.05,2.05,0,0,0,.59-.38,2.14,2.14,0,0,0,.43-.62,2.42,2.42,0,0,0,.2-.69,2.77,2.77,0,0,0,0-.57,1.78,1.78,0,0,0-.11-.53l2.64-.25a3.48,3.48,0,0,1,.12.93,8.51,8.51,0,0,1-.1,1,5.31,5.31,0,0,1-.4,1.23,5,5,0,0,1-1,1.51,4.39,4.39,0,0,1-1.4.93,4,4,0,0,1-1.65.28A4.4,4.4,0,0,1,32.88,130Zm.65-1.44a2.87,2.87,0,0,1-.94-.65A2.69,2.69,0,0,1,32,127a2.56,2.56,0,0,1-.18-1.08,3,3,0,0,1,.29-1.19,3.07,3.07,0,0,1,.28-.51,2.13,2.13,0,0,1,.27-.35,1.79,1.79,0,0,1,.29-.27l-.21-.28-.32.32c-.09.11-.2.25-.3.4a3.61,3.61,0,0,0-.61,1.76,3,3,0,0,0,.17,1.2,3.09,3.09,0,0,0,1.72,1.86,3.17,3.17,0,0,0,1.31.31,2.9,2.9,0,0,0,1.21-.23,3.41,3.41,0,0,0,1-.69,3.69,3.69,0,0,0,.73-1.07,4.06,4.06,0,0,0,.22-.64c0-.2.07-.37.09-.52a3.57,3.57,0,0,0,0-.47l-.35,0a1.45,1.45,0,0,1,0,.42,3.15,3.15,0,0,1-.07.47,2.87,2.87,0,0,1-.2.58,3.3,3.3,0,0,1-.71,1,2.77,2.77,0,0,1-.95.6,2.73,2.73,0,0,1-1.07.16A2.93,2.93,0,0,1,33.53,128.58Z" transform="translate(-9.64 -12.94)"/>
    <path d="M32.42,121l2.15-4.41,2,1-1,2,.83.41,1-2,1.87.91-1,2,.86.42,1-2.1,2,1-2.2,4.5Zm8.38-.44-.27-.13-1.1,2.25L37,121.46,38,119.32l-.27-.13-1,2.13-2.42-1.18,1.09-2.25-.27-.13-1.24,2.54,5.7,2.78Z" transform="translate(-9.64 -12.94)"/>
    <path d="M37.38,111.17l.95-1.76,8.84,1.18-1.24,2.32-.79-.12L43.93,115l.53.6-1.24,2.31Zm5.84,4.64-.44-.51,2-3.63.66.09.16-.31-6.72-.89-.23.42,4.43,5.14ZM39,110.91l5.43.72-1.86,3.43Zm4.19,1.62-1.56-.2,1,1.19Z" transform="translate(-9.64 -12.94)"/>
    <path d="M40.05,106.26l1.11-1.88L45.1,104l-2.78-1.63,1.33-2.25,7.19,4.21-1.11,1.9-3.92.36,2.76,1.62-1.32,2.25Zm7.09,2.43-5-2.92,7.07-.64.16-.28-5.47-3.2-.16.28,5,2.92-7.07.64-.16.28L47,109Z" transform="translate(-9.64 -12.94)"/>
    <path d="M51.26,103.66l-7-4.46,1.24-2a7.41,7.41,0,0,1,1.34-1.62,4.16,4.16,0,0,1,1.49-.89,3.42,3.42,0,0,1,1.62-.12,4.88,4.88,0,0,1,1.71.69A4.81,4.81,0,0,1,53,96.55a3.38,3.38,0,0,1,.58,1.51,4.41,4.41,0,0,1-.15,1.74,7.61,7.61,0,0,1-.9,1.91Zm-.17-1.59.57-.9a4,4,0,0,0,.77-2.77,3.42,3.42,0,0,0-4-2.51,4.06,4.06,0,0,0-2.17,1.89l-.57.9Zm-.08-.43-4.85-3.08.39-.62a3.84,3.84,0,0,1,1.93-1.7,3,3,0,0,1,3.63,2.3A3.72,3.72,0,0,1,51.4,101Zm-.33-1.5a2.09,2.09,0,0,0,.4-1.46,2,2,0,0,0-2.28-1.45,2.14,2.14,0,0,0-1.15,1Z" transform="translate(-9.64 -12.94)"/>
    <path d="M52.44,90.58l-.88,1.26-1.8-1.25,3.32-4.78,1.8,1.24L54,88.32l5.06,3.5L57.5,94.08Zm5.11,1.67-5-3.44,1-1.47-.24-.17-2.23,3.2.25.17,1-1.47,5,3.44Z" transform="translate(-9.64 -12.94)"/>
    <path d="M53.45,85.27,55,83.13l2.29,1.68.88-1.2-2.28-1.68,1.58-2.15,6.72,5-1.59,2.15-2.49-1.83-.88,1.19,2.49,1.84-1.58,2.14Zm6.85,3.09-2.55-1.88,2.18-3,2.55,1.88.19-.26-5.1-3.76-.19.26,2.31,1.71-2.18,3-2.32-1.7-.19.26,5.1,3.76Z" transform="translate(-9.64 -12.94)"/>
    <path d="M58.15,79l3-3.87,1.72,1.35-1.38,1.78.72.57L63.61,77l1.63,1.28-1.36,1.75.76.59,1.44-1.84,1.72,1.35L64.72,84.1Zm8.29,1.32-.23-.19-1.55,2-2.15-1.69L64,78.49l-.23-.18-1.47,1.87-2.12-1.67,1.54-2-.24-.18-1.74,2.22,5,3.91Z" transform="translate(-9.64 -12.94)"/>
    <path d="M64.9,77.08a4.28,4.28,0,0,1-1.08-1.36,4.5,4.5,0,0,1-.47-1.61,4.32,4.32,0,0,1,.18-1.67,4.21,4.21,0,0,1,.82-1.53A4.36,4.36,0,0,1,69,69.54a4.21,4.21,0,0,1,1.53.82,4.28,4.28,0,0,1,1.08,1.36,4.45,4.45,0,0,1,.47,1.61A4.32,4.32,0,0,1,71.89,75a4.21,4.21,0,0,1-.82,1.53,4.28,4.28,0,0,1-1.36,1.08,4.45,4.45,0,0,1-1.61.47,4.32,4.32,0,0,1-1.67-.18A4.21,4.21,0,0,1,64.9,77.08Zm.76-.91a3,3,0,0,0,1.11.61,3.37,3.37,0,0,0,1.22.13,3.27,3.27,0,0,0,1.18-.34,3.19,3.19,0,0,0,1-.8,3.08,3.08,0,0,0,.6-1.11,3.18,3.18,0,0,0,.13-1.22,3.19,3.19,0,0,0-1.13-2.18,3.21,3.21,0,0,0-1.12-.6,3.16,3.16,0,0,0-1.22-.13,3.27,3.27,0,0,0-1.18.34,3.14,3.14,0,0,0-1,.79,3.08,3.08,0,0,0-.61,1.12A3.37,3.37,0,0,0,64.52,74a3.27,3.27,0,0,0,.34,1.18A3,3,0,0,0,65.66,76.17Zm4.26-.61a2.84,2.84,0,0,1-2,1,2.84,2.84,0,0,1-2.1-.66,2.77,2.77,0,0,1-.71-.89,2.81,2.81,0,0,1-.3-1.06A2.88,2.88,0,0,1,65,72.88a2.89,2.89,0,0,1,1.44-1.72,2.81,2.81,0,0,1,1.06-.3,2.69,2.69,0,0,1,1.09.11,2.91,2.91,0,0,1,1,.54,3,3,0,0,1,.71.89,2.91,2.91,0,0,1,.3,1.06,2.74,2.74,0,0,1-.11,1.1A2.87,2.87,0,0,1,69.92,75.56Zm-3.33-.5a1.52,1.52,0,0,0,.61.33,1.69,1.69,0,0,0,.67.07,1.86,1.86,0,0,0,.64-.18,1.64,1.64,0,0,0,.54-.44,1.52,1.52,0,0,0,.33-.61,1.69,1.69,0,0,0,.07-.67,1.86,1.86,0,0,0-.18-.64,1.64,1.64,0,0,0-.44-.54,1.6,1.6,0,0,0-.61-.34,1.86,1.86,0,0,0-1.31.12,1.64,1.64,0,0,0-.54.44,1.46,1.46,0,0,0-.33.61,1.66,1.66,0,0,0-.07.66,1.85,1.85,0,0,0,.18.65A1.64,1.64,0,0,0,66.59,75.06Z" transform="translate(-9.64 -12.94)"/>
    <path d="M67.92,67.05,69.76,65l4.61,4.08,1.52-1.72,1.64,1.45-3.37,3.8Zm8.4,1.59-.23-.2-1.86,2.1-4.52-4-.21.24L74.24,71Z" transform="translate(-9.64 -12.94)"/>
    <path d="M74.61,65.76a4.34,4.34,0,0,1-1-1.42,4.56,4.56,0,0,1-.35-1.65A4.31,4.31,0,0,1,73.55,61a4.57,4.57,0,0,1,.93-1.47,4.2,4.2,0,0,1,1.43-1,4.29,4.29,0,0,1,1.64-.36,4.37,4.37,0,0,1,1.66.29,4.13,4.13,0,0,1,1.46.93A4.37,4.37,0,0,1,82,62.51a4.54,4.54,0,0,1-.29,1.66,4.43,4.43,0,0,1-.93,1.46,4.09,4.09,0,0,1-1.43,1,4.33,4.33,0,0,1-3.29.07A4.08,4.08,0,0,1,74.61,65.76Zm.81-.85a3.11,3.11,0,0,0,1.08.69,3.31,3.31,0,0,0,1.21.2,3.09,3.09,0,0,0,2.24-1,3,3,0,0,0,.68-1.07,3.21,3.21,0,0,0,0-2.41,3.08,3.08,0,0,0-.72-1.05,3.29,3.29,0,0,0-1.07-.68,3.63,3.63,0,0,0-1.21-.21,3.37,3.37,0,0,0-1.21.26,3.25,3.25,0,0,0-1.72,1.8,3.15,3.15,0,0,0-.21,1.21,3.36,3.36,0,0,0,.26,1.2A3.09,3.09,0,0,0,75.42,64.91Zm4.3-.31a3,3,0,0,1-.94.65,3.12,3.12,0,0,1-1.08.23,3.17,3.17,0,0,1-1.09-.19,2.74,2.74,0,0,1-1-.61,2.7,2.7,0,0,1-.65-.94,2.95,2.95,0,0,1,0-2.16,2.72,2.72,0,0,1,.62-1A2.8,2.8,0,0,1,76.5,60a3.12,3.12,0,0,1,1.08-.23,2.91,2.91,0,0,1,1.09.19,2.74,2.74,0,0,1,1,.61,2.7,2.7,0,0,1,.65.94,2.64,2.64,0,0,1,.23,1.07,2.87,2.87,0,0,1-.18,1.09A2.84,2.84,0,0,1,79.72,64.6Zm-3.29-.73a1.59,1.59,0,0,0,.59.37,1.78,1.78,0,0,0,1.31,0,1.61,1.61,0,0,0,.57-.39,1.74,1.74,0,0,0-.05-2.48,1.64,1.64,0,0,0-.58-.37,1.93,1.93,0,0,0-.67-.12A1.86,1.86,0,0,0,77,61a1.81,1.81,0,0,0-.57.39A1.68,1.68,0,0,0,76,62a1.71,1.71,0,0,0-.12.66,2,2,0,0,0,.14.66A1.69,1.69,0,0,0,76.43,63.87Z" transform="translate(-9.64 -12.94)"/>
    <path d="M84.19,54.26a1.58,1.58,0,0,0-.61.16,2.3,2.3,0,0,0-.56.38,1.68,1.68,0,0,0-.39.55,1.5,1.5,0,0,0-.13.62,1.78,1.78,0,0,0,.13.64,1.94,1.94,0,0,0,.39.6,1.8,1.8,0,0,0,.59.41,1.51,1.51,0,0,0,.65.15,1.81,1.81,0,0,0,1.24-.49,1.7,1.7,0,0,0,.44-.67,1.82,1.82,0,0,0,.09-.77l-.54.52-1.2-1.27,2.33-2.21,1.91,2A5,5,0,0,1,88.67,56a4,4,0,0,1-.16,1.14,4.35,4.35,0,0,1-.45,1.07,4.49,4.49,0,0,1-.76.93,4.13,4.13,0,0,1-1.46.93,4.43,4.43,0,0,1-5.65-2.56,4.17,4.17,0,0,1-.31-1.62,4.11,4.11,0,0,1,.33-1.61,4,4,0,0,1,1-1.41,4.82,4.82,0,0,1,1-.73,4.88,4.88,0,0,1,.85-.37,3.1,3.1,0,0,1,.8-.15Zm-1-1.26a1.81,1.81,0,0,0-.35.16,3.9,3.9,0,0,0-.36.22,3.71,3.71,0,0,0-.41.33,3.33,3.33,0,0,0-.74,1,3,3,0,0,0-.27,1.16,2.9,2.9,0,0,0,.2,1.19A3.5,3.5,0,0,0,82,58.21a3.41,3.41,0,0,0,1.08.77,3,3,0,0,0,2.38,0,3.29,3.29,0,0,0,1.07-.68A3,3,0,0,0,87.35,57a3.34,3.34,0,0,0,.09-1.57L86.31,54.2l-1,.91.2.22.73-.68.86.9a2.86,2.86,0,0,1-.1,1.36,2.75,2.75,0,0,1-.77,1.18,2.83,2.83,0,0,1-1,.62,2.64,2.64,0,0,1-1.07.2,2.8,2.8,0,0,1-1.08-.23,3,3,0,0,1-1-.7,3.13,3.13,0,0,1-.65-1,2.88,2.88,0,0,1-.19-1.07,2.52,2.52,0,0,1,.25-1,2.9,2.9,0,0,1,.66-.92,2,2,0,0,1,.34-.26,2.86,2.86,0,0,1,.3-.19l.31-.15Z" transform="translate(-9.64 -12.94)"/>
    <path d="M88.58,52.85,83.5,51l2.23-2,1.89.69-.45-1.95,2.22-2,1.19,5.28L93,53.79l-2,1.76Zm2.84.95-2-2.24-.84-3.72-.3.25.76,3.29L85.9,50.21l-.28.25,3.57,1.32,2,2.25Z" transform="translate(-9.64 -12.94)"/>
  </g>
  <g>
    <path d="M205.19,396.49V369.4h-6.72v-4.73h6.72v-2.88a16,16,0,0,1,1-6.14,11,11,0,0,1,2.71-3.94,9.64,9.64,0,0,1,3.91-2.13,17.55,17.55,0,0,1,4.7-.61,22.93,22.93,0,0,1,5,.55,41.34,41.34,0,0,1,4.69,1.3l-1,4.87a18,18,0,0,0-3.78-1.31,19.66,19.66,0,0,0-4.59-.54,9.54,9.54,0,0,0-2.71.37,5.38,5.38,0,0,0-2.23,1.31,6.31,6.31,0,0,0-1.51,2.46,11.89,11.89,0,0,0-.54,3.88v2.81h12.82v4.73H210.82v27.09Z" transform="translate(-9.64 -12.94)"/>
    <path d="M241.33,369.4h-9.19v-4.73H247v19.54c0,3.16.44,5.27,1.31,6.35a4.72,4.72,0,0,0,3.9,1.61,13.3,13.3,0,0,0,3.67-.48,12.52,12.52,0,0,0,2.64-1l.83,4.8q-.42.21-1.17.51a16.18,16.18,0,0,1-1.75.59q-1,.27-2.19.48a15.66,15.66,0,0,1-2.51.2,13.1,13.1,0,0,1-5-.82,7.29,7.29,0,0,1-3.19-2.47,10.21,10.21,0,0,1-1.68-4.08,29.52,29.52,0,0,1-.48-5.66Zm1.44-9.67a4.35,4.35,0,0,1-3.09-1.23,5,5,0,0,1,0-6.72,4.51,4.51,0,0,1,6.21,0,5.08,5.08,0,0,1,0,6.72A4.32,4.32,0,0,1,242.77,359.73Z" transform="translate(-9.64 -12.94)"/>
    <path d="M273.28,365.84a14.87,14.87,0,0,1,3-1.27,13.52,13.52,0,0,1,4.35-.65,13,13,0,0,1,5.76,1.23,12.35,12.35,0,0,1,4.29,3.43,15.7,15.7,0,0,1,2.67,5.24,23.16,23.16,0,0,1,.93,6.76,20.55,20.55,0,0,1-1.1,6.92,15,15,0,0,1-3.09,5.25,13.37,13.37,0,0,1-4.8,3.33,16.24,16.24,0,0,1-6.24,1.16,36.67,36.67,0,0,1-6.72-.55,44.84,44.84,0,0,1-4.73-1.09V349.93l5.69-1Zm0,25.71a20,20,0,0,0,2.61.51,18.07,18.07,0,0,0,2.47.18,9.55,9.55,0,0,0,7.4-2.92c1.79-1.94,2.68-4.86,2.68-8.74A21.29,21.29,0,0,0,288,376a10.77,10.77,0,0,0-1.51-3.7,7.62,7.62,0,0,0-2.64-2.44,7.93,7.93,0,0,0-3.87-.89,9.6,9.6,0,0,0-3.84.79,10,10,0,0,0-2.82,1.68Z" transform="translate(-9.64 -12.94)"/>
    <path d="M328.55,380.58a20.59,20.59,0,0,1-1.06,6.82,15.77,15.77,0,0,1-3,5.25,13.21,13.21,0,0,1-4.6,3.39,14,14,0,0,1-5.83,1.2,13.67,13.67,0,0,1-5.72-1.2,13.34,13.34,0,0,1-4.56-3.39,15.6,15.6,0,0,1-3-5.25,20.59,20.59,0,0,1-1.07-6.82,20.92,20.92,0,0,1,1.07-6.86,15.08,15.08,0,0,1,3-5.24,13.52,13.52,0,0,1,4.56-3.36,13.67,13.67,0,0,1,5.72-1.2,14,14,0,0,1,5.83,1.2,13.38,13.38,0,0,1,4.6,3.36,15.24,15.24,0,0,1,3,5.24A20.92,20.92,0,0,1,328.55,380.58Zm-5.83,0c0-3.61-.77-6.46-2.33-8.54a7.45,7.45,0,0,0-6.31-3.12,7.3,7.3,0,0,0-6.2,3.12q-2.29,3.12-2.3,8.54c0,3.56.77,6.39,2.3,8.47a7.3,7.3,0,0,0,6.2,3.12,7.45,7.45,0,0,0,6.31-3.12C322,387,322.72,384.14,322.72,380.58Z" transform="translate(-9.64 -12.94)"/>
    <path d="M336.16,365.56a59.08,59.08,0,0,1,6.14-1.16A42,42,0,0,1,348,364q6.38,0,9.63,3.3t3.26,10.56v18.65H355.3V378.86a18.94,18.94,0,0,0-.55-5,7.1,7.1,0,0,0-1.55-3,5.26,5.26,0,0,0-2.4-1.48,10.92,10.92,0,0,0-3.05-.41,27.54,27.54,0,0,0-2.91.17c-1,.12-2,.26-3,.45v26.88h-5.7Z" transform="translate(-9.64 -12.94)"/>
    <path d="M383.34,363.92q6.45,0,9.94,4t3.5,12.17v2H374a10.5,10.5,0,0,0,3.25,7.51q2.93,2.56,8.2,2.57a23.7,23.7,0,0,0,5.14-.48,15.08,15.08,0,0,0,3.22-1l.76,4.8a17.25,17.25,0,0,1-3.71,1.16,26.37,26.37,0,0,1-6,.62,19,19,0,0,1-7.23-1.27,14.37,14.37,0,0,1-5.18-3.46,14.21,14.21,0,0,1-3.09-5.25,20.72,20.72,0,0,1-1-6.61,19.27,19.27,0,0,1,1.31-7.41,15.21,15.21,0,0,1,3.43-5.21,14.12,14.12,0,0,1,4.8-3.09A15.25,15.25,0,0,1,383.34,363.92ZM391,377.49a9.28,9.28,0,0,0-2.12-6.41,7.2,7.2,0,0,0-5.63-2.36,8.47,8.47,0,0,0-3.6.75,9,9,0,0,0-2.77,2,9.69,9.69,0,0,0-1.86,2.81,12.08,12.08,0,0,0-.89,3.22Z" transform="translate(-9.64 -12.94)"/>
  </g>
</svg>
